PathFileType	4	(X/Y/Z)	c:\Git\powerlifing_model_clean\simulations\HC835B\Session1\HC835B_CUT_0001\marker_experimental.trc
DataRate	CameraRate	NumFrames	NumMarkers	Units	OrigDataRate	OrigDataStartFrame	OrigNumFrames
240.000000	240.000000	5	38	mm	240.000000	56	75
Frame#	Time	RPSI			LPSI			RASI			LASI			RTH1			RTH2			RTH3			RTH4			RSK1			RSK2			RSK3			RSK4			RCAL1			RCAL2			RCAL3			RST			RPT			RTN			RFMB			RSMB			RVMB			RFMH			RSMH			RVMH			RPM			LTH1			LTH2			LTH3			LTH4			LSK1			LSK2			LSK3			LSK4			LCAL1			LCAL2			LCAL3			LFMH			LVMH			
		X1	Y1	Z1	X2	Y2	Z2	X3	Y3	Z3	X4	Y4	Z4	X5	Y5	Z5	X6	Y6	Z6	X7	Y7	Z7	X8	Y8	Z8	X9	Y9	Z9	X10	Y10	Z10	X11	Y11	Z11	X12	Y12	Z12	X13	Y13	Z13	X14	Y14	Z14	X15	Y15	Z15	X16	Y16	Z16	X17	Y17	Z17	X18	Y18	Z18	X19	Y19	Z19	X20	Y20	Z20	X21	Y21	Z21	X22	Y22	Z22	X23	Y23	Z23	X24	Y24	Z24	X25	Y25	Z25	X26	Y26	Z26	X27	Y27	Z27	X28	Y28	Z28	X29	Y29	Z29	X30	Y30	Z30	X31	Y31	Z31	X32	Y32	Z32	X33	Y33	Z33	X34	Y34	Z34	X35	Y35	Z35	X36	Y36	Z36	X37	Y37	Z37	X38	Y38	Z38	

57	0.2333333333333333	197.3137969970704	1082.1396484375	-794.1567993164065	110.0825500488282	1046.230590820313	-741.0373535156251	152.6329956054688	1033.843994140625	-1000.775512695313	-52.91726303100587	1004.323059082031	-880.9637451171877	355.8588867187501	813.2838134765627	-976.7204589843752	323.7480468750001	786.4014892578127	-1020.752563476563	371.6887817382813	731.5117797851564	-991.9290161132815	334.2766418457032	701.9621582031251	-1025.81640625	582.1836547851564	384.0845947265626	-792.9910888671877	582.8907470703126	344.7857360839844	-840.631530761719	606.2034912109376	331.1854858398438	-785.923278808594	596.7138061523439	288.8700866699219	-828.1783447265627	652.7288208007814	224.7256622314454	-672.4340209960939	620.7211303710939	197.7725982666016	-644.7423706054689	683.9860839843751	189.4312438964844	-660.1542968750001	588.2487792968751	166.7081298828125	-703.5741577148439	691.6152954101564	156.8480224609375	-715.5525512695314	588.0094604492189	145.4246215820313	-757.7624511718751	584.0040893554689	113.2618484497071	-773.3001098632815	626.2393798828126	118.1456604003907	-806.476745605469	689.1740112304689	105.960693359375	-732.1920776367189	561.7910156250001	64.98896789550783	-788.2390136718752	612.1094360351564	54.34761810302736	-823.6094970703127	685.6430053710939	46.27058410644532	-784.0516357421877	580.0592041015626	34.47412490844727	-854.8786621093752	-42.67656707763673	717.8091430664064	-932.4276123046877	-85.59590148925783	738.1791992187501	-972.0394287109377	-57.05094528198244	667.6585083007814	-1001.881469726563	-86.49466705322267	696.1695556640626	-1047.212768554688	150.9042358398438	326.1540527343751	-1118.209106445313	128.3936767578125	297.0993652343751	-1159.145751953125	171.0090637207032	278.3990478515626	-1141.3818359375	155.3006286621094	258.9765014648438	-1193.893188476563	311.6330261230469	187.5324249267578	-1149.059692382813	308.2457275390626	139.5072021484375	-1148.461669921875	351.1455383300782	174.4372711181641	-1172.6025390625	251.5726013183594	158.4778747558594	-1370.090087890625	0	0	0	
58	0.2375	190.4330139160157	1084.238159179688	-810.6633911132815	102.9197158813477	1047.2578125	-758.2585449218751	146.120590209961	1034.4033203125	-1017.31103515625	-59.381649017334	1006.540588378906	-899.043151855469	351.2289123535157	816.251647949219	-992.6214599609377	319.2610778808594	788.6380004882815	-1036.340454101563	367.8502197265626	734.4846801757814	-1007.083923339844	330.6938476562501	704.2257080078126	-1040.683471679688	581.1019287109376	389.7233276367189	-805.5137329101565	581.6835937500001	349.4313964843751	-852.3671875000002	605.3029174804689	336.9793090820313	-797.4780883789065	595.7349853515626	293.7889404296876	-838.8060302734377	652.7484741210939	234.6909179687501	-682.8934326171876	620.7719116210939	209.0879974365235	-654.1082763671876	683.7597045898439	199.8290252685547	-669.1959838867189	588.3835449218751	175.6111297607422	-711.6267089843751	691.4409790039064	165.1182250976563	-723.2838134765626	587.6517944335939	152.3145904541016	-765.0436401367189	583.5513305664064	119.6634521484375	-779.379577636719	625.7807006835939	123.2448196411133	-812.6932373046877	688.9407958984376	113.690902709961	-738.0890502929689	562.3778076171876	70.13457489013673	-793.2728271484377	611.7986450195314	57.6940155029297	-827.328308105469	684.3640136718751	51.57228469848634	-787.5001220703127	580.3566894531251	34.53245162963868	-858.1505126953127	-45.86634826660157	717.5584716796876	-951.175964355469	-87.50040435791017	737.7249145507814	-991.9318847656252	-58.49163055419923	667.1790161132814	-1020.446838378906	-86.73140716552736	695.2094726562501	-1066.812622070313	148.8839874267578	321.1506347656251	-1147.294799804688	124.5328598022461	293.6846008300782	-1188.08837890625	167.7649078369141	273.8986816406251	-1172.662353515625	149.730712890625	256.0751342773438	-1224.654907226563	305.3880920410157	181.1461791992188	-1186.671997070313	301.0589599609376	133.356674194336	-1187.36962890625	344.3899230957032	168.3471069335938	-1211.234252929688	242.379135131836	158.0186004638672	-1407.631225585938	0	0	0	
59	0.2416666666666667	183.256103515625	1086.228271484375	-827.086364746094	95.6376190185547	1048.1259765625	-775.453796386719	139.0209350585938	1035.056762695313	-1033.697021484375	-65.8429641723633	1008.269165039063	-917.0395507812502	346.5557556152344	818.9915161132815	-1008.546569824219	314.9759216308594	790.7429809570315	-1052.199951171875	363.9157714843751	737.2960205078126	-1022.434143066406	327.2630004882813	706.5068359375001	-1056.084228515625	579.7354736328126	395.4925842285157	-818.1651611328127	580.1854248046876	354.1198425292969	-864.081970214844	604.1247558593751	343.0647583007813	-809.0017089843752	594.3369750976564	298.9679260253907	-849.2526855468752	652.6490478515626	244.6740417480469	-693.0180053710939	620.6942138671876	220.0882720947266	-663.3688354492189	683.6632690429689	210.2584686279297	-678.1431884765626	588.0070800781251	184.7897491455078	-719.4274902343751	691.1315917968751	173.7220153808594	-731.0158691406251	587.2707519531251	159.5265197753907	-772.2171020507815	582.9952392578126	126.2470474243164	-785.099304199219	625.4646606445314	129.2061157226563	-818.9127197265627	688.7470703125001	121.9512557983399	-744.1907958984376	562.7200317382814	76.21121978759767	-798.9700927734377	611.8060302734376	62.31483078002931	-831.7066650390627	682.9079589843751	57.65088272094728	-791.4206542968752	581.7432861328126	34.24192047119141	-862.2789306640627	-49.22114181518556	716.8948974609376	-969.7407226562502	-89.34108734130861	736.8034667968751	-1011.859741210938	-59.92738342285158	666.0471191406251	-1039.029296875	-86.56838226318361	693.8858032226564	-1086.449951171875	146.9713287353516	316.3201599121094	-1175.706298828125	120.8331985473633	290.2385864257813	-1216.401000976563	164.0078430175782	269.0728454589844	-1203.409057617188	143.9046325683594	253.4767303466797	-1254.8935546875	298.9948425292969	175.4366607666016	-1223.328491210938	293.7509765625001	127.8962783813477	-1225.109375	337.4270629882813	162.7491912841797	-1248.673461914063	232.8213958740235	158.0484771728516	-1443.934326171875	0	0	0	
60	0.2458333333333333	175.8317108154297	1087.992431640625	-843.348083496094	88.3003616333008	1048.8017578125	-792.707214355469	132.412353515625	1035.899780273438	-1050.298583984375	-72.08801269531251	1009.698059082031	-934.6824340820315	341.7697753906251	821.4304199218752	-1024.578735351563	310.8950500488282	792.9021606445315	-1068.512573242188	359.9895324707032	739.9329833984376	-1038.005493164063	324.0060729980469	708.6894531250001	-1072.023071289063	578.0075683593751	401.4471435546876	-830.9248046875002	578.4730834960939	358.9330749511719	-875.8129882812502	602.5942382812501	349.3290710449219	-820.522399902344	592.9672241210939	304.2201538085938	-859.6184692382815	651.9943237304689	254.703109741211	-702.7996215820314	620.0465698242189	230.9373321533204	-672.5057983398439	683.1392822265626	220.9455718994141	-686.8399047851564	587.6098022460939	194.0799102783204	-727.5875854492189	690.7854003906251	182.939697265625	-738.7362060546876	586.8442993164064	167.10546875	-779.5247802734377	582.6282348632814	133.4703369140625	-791.6511230468752	625.0620727539064	135.3271789550782	-824.8215332031252	688.5134277343751	130.7371063232422	-750.4016723632814	562.5837402343751	82.78688049316408	-805.2400512695315	612.1077880859376	68.12007141113283	-836.5988769531252	681.9865722656251	64.90550994873048	-795.6875610351565	583.5329589843751	33.63662338256837	-867.0703125000002	-52.7482032775879	715.8356933593751	-988.1770019531252	-90.71028137207033	735.8247070312501	-1031.527099609375	-61.41586303710939	664.6998291015626	-1057.300903320313	-87.9729461669922	693.1027832031251	-1105.4501953125	144.8102264404297	311.2447204589844	-1203.056640625	117.0491943359375	286.9642639160157	-1243.847534179688	160.399154663086	264.7753906250001	-1232.918090820313	138.2696990966797	250.9176177978516	-1284.179443359375	292.6545410156251	170.213363647461	-1258.965209960938	286.1413574218751	122.9277496337891	-1262.054077148438	330.3780822753907	157.681640625	-1285.155883789063	222.8910369873047	158.6306762695313	-1478.884033203125	0	0	0	
61	0.25	168.1499633789063	1089.586669921875	-859.604675292969	80.91016387939455	1049.343383789063	-809.9338378906252	125.93017578125	1036.803344726563	-1067.07080078125	-78.24639129638673	1010.654357910156	-952.6428222656252	337.0007019042969	823.5419921875002	-1040.821899414063	307.0372314453126	794.8115234375002	-1085.048217773438	355.9592590332032	742.1526489257814	-1053.794189453125	320.9337768554688	710.8170166015626	-1088.595825195313	575.8694458007814	407.6009521484376	-843.8762207031252	576.4435424804689	363.8486633300782	-887.6230468750002	600.7482910156251	355.8630065917969	-831.980651855469	591.3742675781251	309.7558898925782	-869.9041748046877	650.3535156250001	265.0547790527344	-712.1438598632814	618.4176635742189	241.678939819336	-681.4482421875001	681.7189941406251	232.0307769775391	-695.2331542968751	586.8550415039064	203.0042877197266	-735.4427490234376	690.0047607421876	192.8474578857422	-746.2167358398439	586.1089477539064	174.9691314697266	-787.3914794921877	582.3857421875001	140.8285522460938	-798.2864990234377	624.9892578125001	142.4549560546875	-831.393493652344	688.3310546875001	140.4619750976563	-756.6653442382814	562.3149414062501	89.11952972412111	-811.686706542969	612.7728271484376	74.7018508911133	-841.6558837890627	682.0272827148439	73.08154296875001	-800.354187011719	585.5662841796876	34.49985122680665	-871.938903808594	-56.257137298584	713.8073730468751	-1007.640686035156	-92.58408355712892	734.2679443359376	-1051.354248046875	-62.96205902099611	662.5301513671876	-1075.637573242188	-87.72047424316408	690.7985839843751	-1124.814819335938	142.737289428711	306.5429687500001	-1229.722534179688	113.4139480590821	284.0105590820313	-1270.739501953125	156.5782470703125	260.7420349121094	-1261.46875	132.8255157470703	248.0548858642579	-1311.579467773438	286.1576843261719	165.3380889892578	-1293.34521484375	284.3813476562501	116.9030075073242	-1295.614868164063	323.3270568847657	153.188705444336	-1320.500854492188	212.5096435546876	159.702880859375	-1512.200805664063	0	0	0	
